<svg xmlns="http://www.w3.org/2000/svg" xmlns:xlink="http://www.w3.org/1999/xlink" width="500" zoomAndPan="magnify" viewBox="0 0 375 374.999991" height="500" preserveAspectRatio="xMidYMid meet" version="1.0"><defs><clipPath id="2e821ae950"><path d="M 155 113.25 L 202 113.25 L 202 153 L 155 153 Z M 155 113.25 " clip-rule="nonzero"/></clipPath><clipPath id="23dc41b4a8"><path d="M 112.5 217 L 262.5 217 L 262.5 261.75 L 112.5 261.75 Z M 112.5 217 " clip-rule="nonzero"/></clipPath></defs><path fill="#ffde59" d="M 225.0625 191.753906 C 225.296875 191.753906 225.539062 191.699219 225.765625 191.589844 C 226 191.476562 226.234375 191.367188 226.457031 191.242188 C 230.171875 189.285156 233.042969 185.90625 234.539062 181.738281 C 238.417969 170.933594 233.320312 161.933594 230.277344 156.554688 C 229.734375 155.589844 229.257812 154.75 228.914062 154.042969 C 228.632812 153.472656 228.890625 153.011719 229.011719 152.835938 C 229.136719 152.664062 229.457031 152.320312 230.0625 152.308594 L 230.113281 152.324219 C 232.101562 152.859375 234.191406 152.238281 235.570312 150.695312 C 236.675781 149.464844 237.144531 147.84375 236.917969 146.261719 C 242.214844 144.398438 242.636719 140.976562 242.546875 139.5 C 242.472656 138.246094 241.714844 137.089844 240.585938 136.480469 L 228.632812 130.09375 C 227.835938 129.667969 226.839844 129.964844 226.410156 130.769531 C 225.984375 131.566406 226.28125 132.5625 227.085938 132.988281 L 239.039062 139.375 C 239.171875 139.445312 239.265625 139.574219 239.273438 139.699219 C 239.414062 142 236.332031 143.109375 234.484375 143.558594 C 234.027344 143.671875 233.636719 143.976562 233.417969 144.398438 C 233.203125 144.820312 233.179688 145.3125 233.347656 145.75 L 233.542969 146.238281 C 233.847656 147.027344 233.695312 147.878906 233.125 148.503906 C 232.570312 149.125 231.761719 149.371094 230.964844 149.15625 L 230.839844 149.121094 C 230.757812 149.097656 230.628906 149.066406 230.542969 149.054688 C 228.914062 148.867188 227.296875 149.589844 226.339844 150.9375 C 225.378906 152.296875 225.238281 153.996094 225.960938 155.484375 C 226.351562 156.28125 226.851562 157.160156 227.425781 158.171875 C 230.371094 163.375 234.820312 171.238281 231.449219 180.632812 C 230.230469 184.023438 227.917969 186.765625 224.921875 188.34375 C 224.734375 188.441406 224.546875 188.535156 224.355469 188.628906 C 223.539062 189.015625 223.1875 189.996094 223.582031 190.816406 C 223.855469 191.402344 224.449219 191.753906 225.0625 191.753906 " fill-opacity="1" fill-rule="nonzero"/><g clip-path="url(#2e821ae950)"><path fill="#ffde59" d="M 200.054688 152.300781 C 200.144531 152.300781 200.238281 152.300781 200.332031 152.296875 C 201.238281 152.273438 201.949219 151.511719 201.917969 150.609375 C 201.894531 149.71875 201.164062 149.019531 200.285156 149.019531 C 200.265625 149.019531 200.25 149.019531 200.230469 149.019531 C 199.457031 149.042969 197.078125 149.121094 195.894531 145.503906 C 195.425781 144.0625 195.332031 142.445312 195.632812 140.824219 C 196.164062 137.941406 196.363281 135.761719 196.21875 134.332031 C 195.867188 130.949219 194.90625 128.34375 193.269531 126.367188 C 190.710938 123.269531 186.753906 122.066406 183.578125 121.101562 L 158.042969 113.332031 C 157.550781 113.179688 157.011719 113.273438 156.597656 113.578125 C 156.179688 113.882812 155.933594 114.367188 155.929688 114.882812 C 155.921875 115.078125 155.964844 134.472656 174.292969 139.257812 C 175.171875 139.488281 176.066406 138.964844 176.296875 138.085938 C 176.523438 137.214844 175.996094 136.316406 175.117188 136.082031 C 162.761719 132.855469 160 121.933594 159.386719 117.164062 L 182.628906 124.234375 C 185.382812 125.074219 188.804688 126.117188 190.738281 128.460938 C 191.945312 129.917969 192.671875 131.953125 192.953125 134.671875 C 193.058594 135.738281 192.867188 137.765625 192.410156 140.226562 C 192.011719 142.386719 192.132812 144.566406 192.777344 146.523438 C 194.003906 150.261719 196.574219 152.300781 200.054688 152.300781 " fill-opacity="1" fill-rule="nonzero"/></g><path fill="#ffde59" d="M 179.382812 151 C 180.167969 151 180.859375 150.4375 180.996094 149.640625 C 181.152344 148.75 180.554688 147.902344 179.664062 147.75 C 175.550781 147.035156 172.582031 145.386719 170.835938 142.855469 C 168.328125 139.21875 169.136719 134.847656 169.148438 134.800781 C 169.316406 133.914062 168.738281 133.054688 167.851562 132.878906 C 166.960938 132.703125 166.105469 133.277344 165.925781 134.160156 C 165.882812 134.394531 164.824219 139.878906 168.109375 144.679688 C 170.367188 147.984375 174.070312 150.105469 179.101562 150.976562 C 179.195312 150.996094 179.289062 151 179.382812 151 " fill-opacity="1" fill-rule="nonzero"/><path fill="#ffde59" d="M 182.894531 163.160156 C 183.703125 163.160156 184.410156 162.554688 184.515625 161.730469 C 184.632812 160.832031 183.996094 160.007812 183.097656 159.894531 C 179.613281 159.445312 177.164062 158.160156 175.808594 156.082031 C 173.546875 152.59375 174.929688 147.832031 174.941406 147.785156 C 175.207031 146.917969 174.714844 146.003906 173.847656 145.746094 C 172.984375 145.480469 172.070312 145.96875 171.808594 146.835938 C 171.730469 147.082031 169.957031 153.0625 173.042969 157.84375 C 174.941406 160.785156 178.183594 162.566406 182.683594 163.148438 C 182.753906 163.160156 182.824219 163.160156 182.894531 163.160156 " fill-opacity="1" fill-rule="nonzero"/><path fill="#ffde59" d="M 196.148438 176.664062 C 201.214844 176.664062 207.035156 174.925781 213.542969 171.4375 C 214.339844 171.011719 214.644531 170.019531 214.210938 169.222656 C 213.789062 168.421875 212.792969 168.121094 211.996094 168.550781 C 202.738281 173.5 195.210938 174.660156 189.609375 171.996094 C 182.660156 168.683594 181.007812 160.476562 180.988281 160.394531 C 180.820312 159.503906 179.957031 158.921875 179.074219 159.09375 C 178.183594 159.261719 177.601562 160.125 177.773438 161.015625 C 177.847656 161.414062 179.769531 170.941406 188.195312 174.953125 C 190.59375 176.097656 193.253906 176.664062 196.148438 176.664062 " fill-opacity="1" fill-rule="nonzero"/><path fill="#ffde59" d="M 126.8125 193.769531 C 126.855469 193.769531 126.890625 193.769531 126.925781 193.769531 C 137.660156 193.679688 146.308594 184.082031 147.070312 183.214844 C 157.652344 172.652344 168.660156 168.703125 176.03125 167.253906 C 176.921875 167.078125 177.503906 166.21875 177.328125 165.328125 C 177.152344 164.4375 176.296875 163.855469 175.398438 164.03125 C 167.570312 165.578125 155.886719 169.757812 144.714844 180.9375 C 144.683594 180.960938 144.65625 180.988281 144.632812 181.023438 C 144.550781 181.117188 136.398438 190.410156 126.894531 190.488281 C 126.871094 190.488281 126.84375 190.488281 126.8125 190.488281 C 122.054688 190.488281 119.449219 187.125 118.65625 184.222656 C 117.847656 181.28125 118.40625 176.976562 122.613281 174.542969 L 122.988281 174.328125 C 123.777344 173.882812 124.054688 172.878906 123.609375 172.089844 C 123.164062 171.304688 122.160156 171.027344 121.375 171.46875 L 120.964844 171.703125 C 116.179688 174.480469 114.027344 179.730469 115.492188 185.089844 C 116.933594 190.375 121.371094 193.769531 126.8125 193.769531 " fill-opacity="1" fill-rule="nonzero"/><path fill="#ffde59" d="M 218.945312 225.507812 C 220.335938 225.507812 221.675781 225.152344 222.84375 224.4375 C 224.382812 223.488281 225.25 221.8125 225.046875 220.171875 C 224.792969 218.167969 223.207031 217.152344 222.046875 216.410156 C 221.628906 216.144531 221.238281 215.894531 220.9375 215.628906 C 220.152344 214.9375 219.679688 213.761719 219.625 212.394531 C 219.578125 210.949219 219.960938 209.460938 220.359375 208.058594 C 221.546875 203.886719 223.101562 199.785156 224.980469 195.867188 C 226.960938 191.742188 227.417969 187.125 226.269531 182.871094 C 224.558594 176.558594 220.300781 173.4375 215.78125 170.132812 C 213.625 168.550781 211.386719 166.914062 209.367188 164.851562 C 201.703125 157.035156 198.984375 143.488281 203.300781 134.648438 C 205.417969 130.316406 210.082031 125.402344 220.351562 126.578125 C 223.75 126.972656 225.984375 128.242188 226.324219 129.976562 C 226.570312 131.238281 225.730469 132.625 224.242188 133.441406 C 222.835938 134.207031 221.097656 134.449219 219.410156 134.683594 C 218.507812 134.8125 217.886719 135.636719 218.007812 136.535156 C 218.132812 137.429688 218.964844 138.058594 219.859375 137.933594 C 221.746094 137.671875 223.886719 137.371094 225.8125 136.316406 C 228.609375 134.792969 230.074219 132.058594 229.546875 129.351562 C 229.242188 127.808594 227.777344 124.128906 220.722656 123.320312 C 211.222656 122.242188 204 125.746094 200.355469 133.207031 C 195.472656 143.195312 198.46875 158.425781 207.027344 167.148438 C 209.238281 169.40625 211.582031 171.121094 213.847656 172.78125 C 218.054688 175.863281 221.695312 178.523438 223.101562 183.726562 C 224.050781 187.222656 223.664062 191.03125 222.023438 194.449219 C 220.066406 198.539062 218.441406 202.816406 217.207031 207.164062 C 216.753906 208.738281 216.28125 210.589844 216.351562 212.511719 C 216.433594 214.773438 217.316406 216.8125 218.777344 218.097656 C 219.257812 218.523438 219.777344 218.851562 220.28125 219.175781 C 221.183594 219.75 221.734375 220.128906 221.789062 220.582031 C 221.839844 220.996094 221.496094 221.417969 221.125 221.640625 C 219.355469 222.730469 217.046875 222.144531 215.535156 221.078125 C 214.136719 220.089844 212.964844 218.546875 211.957031 216.378906 C 209.546875 211.199219 209.289062 205.148438 211.253906 199.78125 C 211.5625 198.925781 211.125 197.988281 210.273438 197.675781 C 209.417969 197.371094 208.480469 197.800781 208.171875 198.65625 C 205.914062 204.832031 206.207031 211.796875 208.980469 217.761719 C 210.234375 220.464844 211.761719 222.425781 213.644531 223.757812 C 215.289062 224.917969 217.152344 225.507812 218.945312 225.507812 " fill-opacity="1" fill-rule="nonzero"/><path fill="#ffde59" d="M 159.71875 225.507812 C 161.109375 225.507812 162.449219 225.152344 163.621094 224.4375 C 165.164062 223.488281 166.023438 221.816406 165.820312 220.171875 C 165.566406 218.167969 163.984375 217.152344 162.824219 216.410156 C 162.410156 216.144531 162.011719 215.894531 161.71875 215.628906 C 160.183594 214.28125 160.007812 212.019531 161.136719 208.058594 C 161.15625 207.984375 161.171875 207.902344 161.183594 207.820312 C 161.308594 206.871094 162.152344 206.121094 162.835938 205.664062 C 162.960938 205.574219 163.363281 205.375 163.714844 205.195312 C 166.898438 203.589844 175.152344 199.410156 176.933594 188.851562 C 180.292969 188.519531 183.917969 191.34375 187.746094 194.3125 C 189.867188 195.960938 192.058594 197.664062 194.382812 198.988281 C 199.148438 201.695312 205.066406 202.21875 210.222656 200.382812 C 211.078125 200.085938 211.523438 199.148438 211.21875 198.292969 C 210.917969 197.4375 209.976562 196.992188 209.125 197.296875 C 204.847656 198.8125 199.949219 198.378906 196.007812 196.136719 C 193.886719 194.929688 191.789062 193.300781 189.761719 191.722656 C 185.085938 188.089844 180.25 184.328125 175 185.90625 C 174.375 186.09375 173.921875 186.636719 173.847656 187.289062 C 172.710938 196.972656 165.375 200.683594 162.234375 202.265625 C 161.6875 202.539062 161.296875 202.738281 161.003906 202.9375 C 159.257812 204.117188 158.203125 205.609375 157.949219 207.269531 C 156.953125 210.808594 156.261719 215.207031 159.550781 218.097656 C 160.035156 218.523438 160.558594 218.851562 161.054688 219.175781 C 161.957031 219.75 162.507812 220.128906 162.566406 220.582031 C 162.613281 221.003906 162.269531 221.417969 161.898438 221.640625 C 160.136719 222.730469 157.820312 222.140625 156.316406 221.078125 C 154.910156 220.089844 153.738281 218.554688 152.730469 216.378906 C 150.625 211.851562 150.164062 206.453125 151.457031 201.578125 C 151.675781 200.769531 152.054688 199.925781 152.625 199 C 153.90625 196.914062 157.78125 189.566406 153.671875 182.722656 C 153.203125 181.945312 152.195312 181.691406 151.421875 182.160156 C 150.644531 182.625 150.390625 183.632812 150.859375 184.410156 C 154.011719 189.667969 150.867188 195.597656 149.828125 197.285156 C 149.089844 198.484375 148.585938 199.617188 148.289062 200.734375 C 146.800781 206.34375 147.332031 212.546875 149.753906 217.761719 C 151.011719 220.464844 152.535156 222.425781 154.421875 223.757812 C 156.0625 224.917969 157.925781 225.507812 159.71875 225.507812 " fill-opacity="1" fill-rule="nonzero"/><g clip-path="url(#23dc41b4a8)"><path fill="#ffde59" d="M 114.140625 261.742188 L 260.859375 261.742188 C 261.765625 261.742188 262.5 261.003906 262.5 260.101562 L 262.5 253.289062 C 262.5 243.855469 254.824219 236.179688 245.390625 236.179688 L 238.324219 236.179688 L 238.324219 232.65625 C 238.324219 224.261719 231.492188 217.429688 223.089844 217.429688 C 222.1875 217.429688 221.449219 218.167969 221.449219 219.070312 C 221.449219 219.976562 222.1875 220.710938 223.089844 220.710938 C 229.679688 220.710938 235.042969 226.070312 235.042969 232.65625 L 235.042969 237.820312 C 235.042969 238.726562 235.773438 239.460938 236.683594 239.460938 L 245.390625 239.460938 C 253.011719 239.460938 259.21875 245.664062 259.21875 253.289062 L 259.21875 258.460938 L 115.78125 258.460938 L 115.78125 253.289062 C 115.78125 245.664062 121.984375 239.460938 129.609375 239.460938 L 138.316406 239.460938 C 139.222656 239.460938 139.957031 238.726562 139.957031 237.820312 L 139.957031 232.65625 C 139.957031 226.070312 145.316406 220.710938 151.910156 220.710938 C 152.8125 220.710938 153.550781 219.976562 153.550781 219.070312 C 153.550781 218.167969 152.8125 217.429688 151.910156 217.429688 C 143.507812 217.429688 136.675781 224.261719 136.675781 232.65625 L 136.675781 236.179688 L 129.609375 236.179688 C 120.175781 236.179688 112.5 243.855469 112.5 253.289062 L 112.5 260.101562 C 112.5 261.003906 113.230469 261.742188 114.140625 261.742188 " fill-opacity="1" fill-rule="nonzero"/></g><path fill="#ffde59" d="M 164.191406 220.710938 L 211.546875 220.710938 C 212.453125 220.710938 213.1875 219.976562 213.1875 219.070312 C 213.1875 218.167969 212.453125 217.429688 211.546875 217.429688 L 164.191406 217.429688 C 163.289062 217.429688 162.550781 218.167969 162.550781 219.070312 C 162.550781 219.976562 163.289062 220.710938 164.191406 220.710938 " fill-opacity="1" fill-rule="nonzero"/><path fill="#ffde59" d="M 187.5 239.460938 L 236.683594 239.460938 C 237.585938 239.460938 238.324219 238.726562 238.324219 237.820312 C 238.324219 236.910156 237.585938 236.179688 236.683594 236.179688 L 187.5 236.179688 C 186.597656 236.179688 185.859375 236.910156 185.859375 237.820312 C 185.859375 238.726562 186.597656 239.460938 187.5 239.460938 " fill-opacity="1" fill-rule="nonzero"/></svg>